<?xml version="1.0" encoding="iso-8859-1"?>
<!-- Uploaded to: SVG Repo, www.svgrepo.com, Generator: SVG Repo Mixer Tools -->
<svg height="800px" width="800px" version="1.1" id="Layer_1" xmlns="http://www.w3.org/2000/svg" xmlns:xlink="http://www.w3.org/1999/xlink" 
	 viewBox="0 0 528 528" xml:space="preserve">
<path style="fill:#2D2D2D;" d="M264,511.624c136.752,0,248-111.088,248-247.624S400.752,16.376,264,16.376S16,127.464,16,264
	S127.248,511.624,264,511.624z M192.496,154.928l195.624,104.44L192.496,363.8V154.928z"/>
<path style="fill:#8AD5DD;" d="M264,527.624c145.568,0,264-118.256,264-263.624S409.568,0.376,264,0.376S0,118.632,0,264
	S118.432,527.624,264,527.624z M264,16.376c136.752,0,248,111.088,248,247.624S400.752,511.624,264,511.624S16,400.536,16,264
	S127.248,16.376,264,16.376z"/>
<polygon style="fill:green;" points="192.496,154.928 192.496,363.8 388.12,259.368 "/>
</svg>